<mxfile host="Electron" modified="2023-04-12T14:15:40.753Z" agent="Mozilla/5.0 (Windows NT 10.0; Win64; x64) AppleWebKit/537.36 (KHTML, like Gecko) draw.io/21.1.2 Chrome/106.0.5249.199 Electron/21.4.3 Safari/537.36" etag="pWi6WTA_cBD7a9ai2yGJ" version="21.1.2" type="device">
  <diagram name="Page-1" id="RoM57zO1AZyIhzhsd-Ih">
    <mxGraphModel dx="100989" dy="582" grid="1" gridSize="10" guides="1" tooltips="1" connect="1" arrows="1" fold="1" page="1" pageScale="1" pageWidth="100000" pageHeight="100000" math="0" shadow="0">
      <root>
        <mxCell id="0" />
        <mxCell id="1" parent="0" />
        <mxCell id="rq_K2i9q7A3WGKM-Elxi-1" value="Customer" style="rounded=1;whiteSpace=wrap;html=1;" vertex="1" parent="1">
          <mxGeometry x="320" y="690" width="120" height="60" as="geometry" />
        </mxCell>
        <mxCell id="rq_K2i9q7A3WGKM-Elxi-18" style="rounded=0;orthogonalLoop=1;jettySize=auto;html=1;exitX=0.25;exitY=0;exitDx=0;exitDy=0;entryX=0.5;entryY=1;entryDx=0;entryDy=0;endArrow=none;endFill=0;" edge="1" parent="1" source="rq_K2i9q7A3WGKM-Elxi-2" target="rq_K2i9q7A3WGKM-Elxi-17">
          <mxGeometry relative="1" as="geometry" />
        </mxCell>
        <mxCell id="rq_K2i9q7A3WGKM-Elxi-21" style="rounded=0;orthogonalLoop=1;jettySize=auto;html=1;entryX=0.5;entryY=1;entryDx=0;entryDy=0;endArrow=none;endFill=0;" edge="1" parent="1" source="rq_K2i9q7A3WGKM-Elxi-2" target="rq_K2i9q7A3WGKM-Elxi-19">
          <mxGeometry relative="1" as="geometry" />
        </mxCell>
        <mxCell id="rq_K2i9q7A3WGKM-Elxi-22" style="rounded=0;orthogonalLoop=1;jettySize=auto;html=1;entryX=0;entryY=0.5;entryDx=0;entryDy=0;endArrow=none;endFill=0;" edge="1" parent="1" source="rq_K2i9q7A3WGKM-Elxi-2" target="rq_K2i9q7A3WGKM-Elxi-20">
          <mxGeometry relative="1" as="geometry" />
        </mxCell>
        <mxCell id="rq_K2i9q7A3WGKM-Elxi-27" style="rounded=0;orthogonalLoop=1;jettySize=auto;html=1;entryX=0;entryY=0.5;entryDx=0;entryDy=0;endArrow=none;endFill=0;" edge="1" parent="1" source="rq_K2i9q7A3WGKM-Elxi-2" target="rq_K2i9q7A3WGKM-Elxi-26">
          <mxGeometry relative="1" as="geometry" />
        </mxCell>
        <mxCell id="rq_K2i9q7A3WGKM-Elxi-2" value="Menu Item" style="rounded=1;whiteSpace=wrap;html=1;" vertex="1" parent="1">
          <mxGeometry x="760" y="450" width="120" height="60" as="geometry" />
        </mxCell>
        <mxCell id="rq_K2i9q7A3WGKM-Elxi-11" style="rounded=0;orthogonalLoop=1;jettySize=auto;html=1;entryX=0.5;entryY=1;entryDx=0;entryDy=0;endArrow=none;endFill=0;" edge="1" parent="1" source="rq_K2i9q7A3WGKM-Elxi-3" target="rq_K2i9q7A3WGKM-Elxi-10">
          <mxGeometry relative="1" as="geometry" />
        </mxCell>
        <mxCell id="rq_K2i9q7A3WGKM-Elxi-14" style="rounded=0;orthogonalLoop=1;jettySize=auto;html=1;exitX=0;exitY=0;exitDx=0;exitDy=0;entryX=0.5;entryY=1;entryDx=0;entryDy=0;endArrow=none;endFill=0;" edge="1" parent="1" source="rq_K2i9q7A3WGKM-Elxi-3" target="rq_K2i9q7A3WGKM-Elxi-12">
          <mxGeometry relative="1" as="geometry" />
        </mxCell>
        <mxCell id="rq_K2i9q7A3WGKM-Elxi-32" style="rounded=0;orthogonalLoop=1;jettySize=auto;html=1;entryX=0.5;entryY=0;entryDx=0;entryDy=0;endArrow=none;endFill=0;" edge="1" parent="1" source="rq_K2i9q7A3WGKM-Elxi-3" target="rq_K2i9q7A3WGKM-Elxi-31">
          <mxGeometry relative="1" as="geometry" />
        </mxCell>
        <mxCell id="rq_K2i9q7A3WGKM-Elxi-65" style="edgeStyle=none;rounded=0;orthogonalLoop=1;jettySize=auto;html=1;endArrow=none;endFill=0;" edge="1" parent="1" source="rq_K2i9q7A3WGKM-Elxi-3" target="rq_K2i9q7A3WGKM-Elxi-47">
          <mxGeometry relative="1" as="geometry" />
        </mxCell>
        <mxCell id="rq_K2i9q7A3WGKM-Elxi-3" value="Order" style="rounded=1;whiteSpace=wrap;html=1;" vertex="1" parent="1">
          <mxGeometry x="320" y="450" width="120" height="60" as="geometry" />
        </mxCell>
        <mxCell id="rq_K2i9q7A3WGKM-Elxi-6" style="rounded=0;orthogonalLoop=1;jettySize=auto;html=1;entryX=1;entryY=0.5;entryDx=0;entryDy=0;endArrow=none;endFill=0;" edge="1" parent="1" source="rq_K2i9q7A3WGKM-Elxi-5" target="rq_K2i9q7A3WGKM-Elxi-3">
          <mxGeometry relative="1" as="geometry" />
        </mxCell>
        <mxCell id="rq_K2i9q7A3WGKM-Elxi-7" style="rounded=0;orthogonalLoop=1;jettySize=auto;html=1;entryX=0;entryY=0.5;entryDx=0;entryDy=0;endArrow=none;endFill=0;" edge="1" parent="1" source="rq_K2i9q7A3WGKM-Elxi-5" target="rq_K2i9q7A3WGKM-Elxi-2">
          <mxGeometry relative="1" as="geometry" />
        </mxCell>
        <mxCell id="rq_K2i9q7A3WGKM-Elxi-16" style="rounded=0;orthogonalLoop=1;jettySize=auto;html=1;exitX=0.5;exitY=0;exitDx=0;exitDy=0;entryX=0.5;entryY=1;entryDx=0;entryDy=0;endArrow=none;endFill=0;" edge="1" parent="1" source="rq_K2i9q7A3WGKM-Elxi-5" target="rq_K2i9q7A3WGKM-Elxi-15">
          <mxGeometry relative="1" as="geometry" />
        </mxCell>
        <mxCell id="rq_K2i9q7A3WGKM-Elxi-5" value="Order_Item" style="rhombus;whiteSpace=wrap;html=1;" vertex="1" parent="1">
          <mxGeometry x="560" y="440" width="80" height="80" as="geometry" />
        </mxCell>
        <mxCell id="rq_K2i9q7A3WGKM-Elxi-10" value="date" style="ellipse;whiteSpace=wrap;html=1;" vertex="1" parent="1">
          <mxGeometry x="410" y="400" width="60" height="20" as="geometry" />
        </mxCell>
        <mxCell id="rq_K2i9q7A3WGKM-Elxi-12" value="total_amount" style="ellipse;whiteSpace=wrap;html=1;" vertex="1" parent="1">
          <mxGeometry x="240" y="410" width="90" height="20" as="geometry" />
        </mxCell>
        <mxCell id="rq_K2i9q7A3WGKM-Elxi-15" value="quantity" style="ellipse;whiteSpace=wrap;html=1;" vertex="1" parent="1">
          <mxGeometry x="570" y="390" width="90" height="20" as="geometry" />
        </mxCell>
        <mxCell id="rq_K2i9q7A3WGKM-Elxi-17" value="name" style="ellipse;whiteSpace=wrap;html=1;" vertex="1" parent="1">
          <mxGeometry x="750" y="390" width="60" height="20" as="geometry" />
        </mxCell>
        <mxCell id="rq_K2i9q7A3WGKM-Elxi-19" value="price" style="ellipse;whiteSpace=wrap;html=1;" vertex="1" parent="1">
          <mxGeometry x="830" y="390" width="60" height="20" as="geometry" />
        </mxCell>
        <mxCell id="rq_K2i9q7A3WGKM-Elxi-20" value="description" style="ellipse;whiteSpace=wrap;html=1;" vertex="1" parent="1">
          <mxGeometry x="900" y="410" width="70" height="20" as="geometry" />
        </mxCell>
        <mxCell id="rq_K2i9q7A3WGKM-Elxi-30" style="rounded=0;orthogonalLoop=1;jettySize=auto;html=1;exitX=0.5;exitY=0;exitDx=0;exitDy=0;entryX=0.5;entryY=1;entryDx=0;entryDy=0;endArrow=none;endFill=0;" edge="1" parent="1" source="rq_K2i9q7A3WGKM-Elxi-24" target="rq_K2i9q7A3WGKM-Elxi-29">
          <mxGeometry relative="1" as="geometry" />
        </mxCell>
        <mxCell id="rq_K2i9q7A3WGKM-Elxi-24" value="Category" style="rounded=1;whiteSpace=wrap;html=1;" vertex="1" parent="1">
          <mxGeometry x="1170" y="450" width="120" height="60" as="geometry" />
        </mxCell>
        <mxCell id="rq_K2i9q7A3WGKM-Elxi-28" style="rounded=0;orthogonalLoop=1;jettySize=auto;html=1;endArrow=none;endFill=0;" edge="1" parent="1" source="rq_K2i9q7A3WGKM-Elxi-26" target="rq_K2i9q7A3WGKM-Elxi-24">
          <mxGeometry relative="1" as="geometry" />
        </mxCell>
        <mxCell id="rq_K2i9q7A3WGKM-Elxi-26" value="belongs_to" style="rhombus;whiteSpace=wrap;html=1;" vertex="1" parent="1">
          <mxGeometry x="980" y="440" width="80" height="80" as="geometry" />
        </mxCell>
        <mxCell id="rq_K2i9q7A3WGKM-Elxi-29" value="name" style="ellipse;whiteSpace=wrap;html=1;" vertex="1" parent="1">
          <mxGeometry x="1200" y="400" width="60" height="20" as="geometry" />
        </mxCell>
        <mxCell id="rq_K2i9q7A3WGKM-Elxi-33" style="rounded=0;orthogonalLoop=1;jettySize=auto;html=1;entryX=0.5;entryY=0;entryDx=0;entryDy=0;endArrow=none;endFill=0;" edge="1" parent="1" source="rq_K2i9q7A3WGKM-Elxi-31" target="rq_K2i9q7A3WGKM-Elxi-1">
          <mxGeometry relative="1" as="geometry" />
        </mxCell>
        <mxCell id="rq_K2i9q7A3WGKM-Elxi-31" value="Made_By" style="rhombus;whiteSpace=wrap;html=1;" vertex="1" parent="1">
          <mxGeometry x="340" y="560" width="80" height="80" as="geometry" />
        </mxCell>
        <mxCell id="rq_K2i9q7A3WGKM-Elxi-36" style="rounded=0;orthogonalLoop=1;jettySize=auto;html=1;endArrow=none;endFill=0;" edge="1" parent="1" source="rq_K2i9q7A3WGKM-Elxi-34" target="rq_K2i9q7A3WGKM-Elxi-35">
          <mxGeometry relative="1" as="geometry" />
        </mxCell>
        <mxCell id="rq_K2i9q7A3WGKM-Elxi-42" style="rounded=0;orthogonalLoop=1;jettySize=auto;html=1;exitX=0.75;exitY=0;exitDx=0;exitDy=0;entryX=0.5;entryY=1;entryDx=0;entryDy=0;endArrow=none;endFill=0;" edge="1" parent="1" source="rq_K2i9q7A3WGKM-Elxi-34" target="rq_K2i9q7A3WGKM-Elxi-39">
          <mxGeometry relative="1" as="geometry" />
        </mxCell>
        <mxCell id="rq_K2i9q7A3WGKM-Elxi-43" style="rounded=0;orthogonalLoop=1;jettySize=auto;html=1;exitX=0.25;exitY=0;exitDx=0;exitDy=0;entryX=0.5;entryY=1;entryDx=0;entryDy=0;endArrow=none;endFill=0;" edge="1" parent="1" source="rq_K2i9q7A3WGKM-Elxi-34" target="rq_K2i9q7A3WGKM-Elxi-38">
          <mxGeometry relative="1" as="geometry" />
        </mxCell>
        <mxCell id="rq_K2i9q7A3WGKM-Elxi-44" style="rounded=0;orthogonalLoop=1;jettySize=auto;html=1;exitX=0;exitY=0;exitDx=0;exitDy=0;entryX=0.683;entryY=1;entryDx=0;entryDy=0;entryPerimeter=0;endArrow=none;endFill=0;" edge="1" parent="1" source="rq_K2i9q7A3WGKM-Elxi-34" target="rq_K2i9q7A3WGKM-Elxi-40">
          <mxGeometry relative="1" as="geometry" />
        </mxCell>
        <mxCell id="rq_K2i9q7A3WGKM-Elxi-45" style="rounded=0;orthogonalLoop=1;jettySize=auto;html=1;exitX=0;exitY=0.5;exitDx=0;exitDy=0;entryX=1;entryY=0.5;entryDx=0;entryDy=0;endArrow=none;endFill=0;" edge="1" parent="1" source="rq_K2i9q7A3WGKM-Elxi-34" target="rq_K2i9q7A3WGKM-Elxi-41">
          <mxGeometry relative="1" as="geometry" />
        </mxCell>
        <mxCell id="rq_K2i9q7A3WGKM-Elxi-34" value="Delivery Adderss" style="rounded=1;whiteSpace=wrap;html=1;" vertex="1" parent="1">
          <mxGeometry x="-40" y="690" width="120" height="60" as="geometry" />
        </mxCell>
        <mxCell id="rq_K2i9q7A3WGKM-Elxi-37" style="rounded=0;orthogonalLoop=1;jettySize=auto;html=1;entryX=0;entryY=0.5;entryDx=0;entryDy=0;endArrow=none;endFill=0;" edge="1" parent="1" source="rq_K2i9q7A3WGKM-Elxi-35" target="rq_K2i9q7A3WGKM-Elxi-1">
          <mxGeometry relative="1" as="geometry" />
        </mxCell>
        <mxCell id="rq_K2i9q7A3WGKM-Elxi-35" value="of" style="rhombus;whiteSpace=wrap;html=1;" vertex="1" parent="1">
          <mxGeometry x="160" y="680" width="80" height="80" as="geometry" />
        </mxCell>
        <mxCell id="rq_K2i9q7A3WGKM-Elxi-38" value="street" style="ellipse;whiteSpace=wrap;html=1;" vertex="1" parent="1">
          <mxGeometry x="-40" y="630" width="60" height="20" as="geometry" />
        </mxCell>
        <mxCell id="rq_K2i9q7A3WGKM-Elxi-39" value="city" style="ellipse;whiteSpace=wrap;html=1;" vertex="1" parent="1">
          <mxGeometry x="30" y="630" width="60" height="20" as="geometry" />
        </mxCell>
        <mxCell id="rq_K2i9q7A3WGKM-Elxi-40" value="state" style="ellipse;whiteSpace=wrap;html=1;" vertex="1" parent="1">
          <mxGeometry x="-100" y="650" width="60" height="20" as="geometry" />
        </mxCell>
        <mxCell id="rq_K2i9q7A3WGKM-Elxi-41" value="zip code" style="ellipse;whiteSpace=wrap;html=1;" vertex="1" parent="1">
          <mxGeometry x="-120" y="700" width="60" height="20" as="geometry" />
        </mxCell>
        <mxCell id="rq_K2i9q7A3WGKM-Elxi-63" style="edgeStyle=none;rounded=0;orthogonalLoop=1;jettySize=auto;html=1;endArrow=none;endFill=0;" edge="1" parent="1" source="rq_K2i9q7A3WGKM-Elxi-46" target="rq_K2i9q7A3WGKM-Elxi-47">
          <mxGeometry relative="1" as="geometry" />
        </mxCell>
        <mxCell id="rq_K2i9q7A3WGKM-Elxi-68" style="edgeStyle=none;rounded=0;orthogonalLoop=1;jettySize=auto;html=1;entryX=0.5;entryY=1;entryDx=0;entryDy=0;endArrow=none;endFill=0;" edge="1" parent="1" source="rq_K2i9q7A3WGKM-Elxi-46" target="rq_K2i9q7A3WGKM-Elxi-66">
          <mxGeometry relative="1" as="geometry" />
        </mxCell>
        <mxCell id="rq_K2i9q7A3WGKM-Elxi-69" style="edgeStyle=none;rounded=0;orthogonalLoop=1;jettySize=auto;html=1;entryX=0.5;entryY=1;entryDx=0;entryDy=0;endArrow=none;endFill=0;" edge="1" parent="1" source="rq_K2i9q7A3WGKM-Elxi-46" target="rq_K2i9q7A3WGKM-Elxi-67">
          <mxGeometry relative="1" as="geometry" />
        </mxCell>
        <mxCell id="rq_K2i9q7A3WGKM-Elxi-46" value="Payment" style="rounded=1;whiteSpace=wrap;html=1;" vertex="1" parent="1">
          <mxGeometry x="-40" y="450" width="120" height="60" as="geometry" />
        </mxCell>
        <mxCell id="rq_K2i9q7A3WGKM-Elxi-47" value="of" style="rhombus;whiteSpace=wrap;html=1;" vertex="1" parent="1">
          <mxGeometry x="160" y="440" width="80" height="80" as="geometry" />
        </mxCell>
        <mxCell id="rq_K2i9q7A3WGKM-Elxi-66" value="date" style="ellipse;whiteSpace=wrap;html=1;" vertex="1" parent="1">
          <mxGeometry y="400" width="60" height="20" as="geometry" />
        </mxCell>
        <mxCell id="rq_K2i9q7A3WGKM-Elxi-67" value="amount" style="ellipse;whiteSpace=wrap;html=1;" vertex="1" parent="1">
          <mxGeometry x="-100" y="420" width="60" height="20" as="geometry" />
        </mxCell>
        <mxCell id="rq_K2i9q7A3WGKM-Elxi-74" style="edgeStyle=none;rounded=0;orthogonalLoop=1;jettySize=auto;html=1;entryX=1;entryY=0.5;entryDx=0;entryDy=0;endArrow=none;endFill=0;" edge="1" parent="1" source="rq_K2i9q7A3WGKM-Elxi-72" target="rq_K2i9q7A3WGKM-Elxi-73">
          <mxGeometry relative="1" as="geometry" />
        </mxCell>
        <mxCell id="rq_K2i9q7A3WGKM-Elxi-77" style="edgeStyle=none;rounded=0;orthogonalLoop=1;jettySize=auto;html=1;entryX=0.5;entryY=1;entryDx=0;entryDy=0;endArrow=none;endFill=0;" edge="1" parent="1" source="rq_K2i9q7A3WGKM-Elxi-72" target="rq_K2i9q7A3WGKM-Elxi-76">
          <mxGeometry relative="1" as="geometry" />
        </mxCell>
        <mxCell id="rq_K2i9q7A3WGKM-Elxi-72" value="Coupon" style="rounded=1;whiteSpace=wrap;html=1;" vertex="1" parent="1">
          <mxGeometry x="730" y="690" width="120" height="60" as="geometry" />
        </mxCell>
        <mxCell id="rq_K2i9q7A3WGKM-Elxi-75" style="edgeStyle=none;rounded=0;orthogonalLoop=1;jettySize=auto;html=1;entryX=1;entryY=1;entryDx=0;entryDy=0;endArrow=none;endFill=0;exitX=0.5;exitY=0;exitDx=0;exitDy=0;" edge="1" parent="1" source="rq_K2i9q7A3WGKM-Elxi-73" target="rq_K2i9q7A3WGKM-Elxi-3">
          <mxGeometry relative="1" as="geometry" />
        </mxCell>
        <mxCell id="rq_K2i9q7A3WGKM-Elxi-88" style="edgeStyle=none;rounded=0;orthogonalLoop=1;jettySize=auto;html=1;entryX=1;entryY=0.5;entryDx=0;entryDy=0;endArrow=none;endFill=0;" edge="1" parent="1" source="rq_K2i9q7A3WGKM-Elxi-73" target="rq_K2i9q7A3WGKM-Elxi-1">
          <mxGeometry relative="1" as="geometry" />
        </mxCell>
        <mxCell id="rq_K2i9q7A3WGKM-Elxi-73" value="Orders Coupons" style="rhombus;whiteSpace=wrap;html=1;" vertex="1" parent="1">
          <mxGeometry x="550" y="680" width="80" height="80" as="geometry" />
        </mxCell>
        <mxCell id="rq_K2i9q7A3WGKM-Elxi-76" value="discount" style="ellipse;whiteSpace=wrap;html=1;" vertex="1" parent="1">
          <mxGeometry x="745" y="620" width="90" height="20" as="geometry" />
        </mxCell>
        <mxCell id="rq_K2i9q7A3WGKM-Elxi-78" value="N" style="text;html=1;align=center;verticalAlign=middle;resizable=0;points=[];autosize=1;" vertex="1" parent="1">
          <mxGeometry x="380" y="510" width="30" height="30" as="geometry" />
        </mxCell>
        <mxCell id="rq_K2i9q7A3WGKM-Elxi-79" value="1" style="text;html=1;align=center;verticalAlign=middle;resizable=0;points=[];autosize=1;" vertex="1" parent="1">
          <mxGeometry x="350" y="660" width="30" height="30" as="geometry" />
        </mxCell>
        <mxCell id="rq_K2i9q7A3WGKM-Elxi-80" value="N" style="text;html=1;align=center;verticalAlign=middle;resizable=0;points=[];autosize=1;" vertex="1" parent="1">
          <mxGeometry x="730" y="480" width="30" height="30" as="geometry" />
        </mxCell>
        <mxCell id="rq_K2i9q7A3WGKM-Elxi-81" value="M" style="text;html=1;align=center;verticalAlign=middle;resizable=0;points=[];autosize=1;" vertex="1" parent="1">
          <mxGeometry x="440" y="450" width="30" height="30" as="geometry" />
        </mxCell>
        <mxCell id="rq_K2i9q7A3WGKM-Elxi-82" value="N" style="text;html=1;align=center;verticalAlign=middle;resizable=0;points=[];autosize=1;" vertex="1" parent="1">
          <mxGeometry x="1140" y="480" width="30" height="30" as="geometry" />
        </mxCell>
        <mxCell id="rq_K2i9q7A3WGKM-Elxi-83" value="M" style="text;html=1;align=center;verticalAlign=middle;resizable=0;points=[];autosize=1;" vertex="1" parent="1">
          <mxGeometry x="880" y="450" width="30" height="30" as="geometry" />
        </mxCell>
        <mxCell id="rq_K2i9q7A3WGKM-Elxi-84" value="1" style="text;html=1;align=center;verticalAlign=middle;resizable=0;points=[];autosize=1;" vertex="1" parent="1">
          <mxGeometry x="290" y="480" width="30" height="30" as="geometry" />
        </mxCell>
        <mxCell id="rq_K2i9q7A3WGKM-Elxi-85" value="1" style="text;html=1;align=center;verticalAlign=middle;resizable=0;points=[];autosize=1;" vertex="1" parent="1">
          <mxGeometry x="80" y="450" width="30" height="30" as="geometry" />
        </mxCell>
        <mxCell id="rq_K2i9q7A3WGKM-Elxi-86" value="N" style="text;html=1;align=center;verticalAlign=middle;resizable=0;points=[];autosize=1;" vertex="1" parent="1">
          <mxGeometry x="80" y="720" width="30" height="30" as="geometry" />
        </mxCell>
        <mxCell id="rq_K2i9q7A3WGKM-Elxi-87" value="1" style="text;html=1;align=center;verticalAlign=middle;resizable=0;points=[];autosize=1;" vertex="1" parent="1">
          <mxGeometry x="290" y="690" width="30" height="30" as="geometry" />
        </mxCell>
        <mxCell id="rq_K2i9q7A3WGKM-Elxi-89" value="N" style="text;html=1;align=center;verticalAlign=middle;resizable=0;points=[];autosize=1;" vertex="1" parent="1">
          <mxGeometry x="525" y="715" width="30" height="30" as="geometry" />
        </mxCell>
        <mxCell id="rq_K2i9q7A3WGKM-Elxi-90" value="1" style="text;html=1;align=center;verticalAlign=middle;resizable=0;points=[];autosize=1;" vertex="1" parent="1">
          <mxGeometry x="575" y="655" width="30" height="30" as="geometry" />
        </mxCell>
        <mxCell id="rq_K2i9q7A3WGKM-Elxi-91" value="M" style="text;html=1;align=center;verticalAlign=middle;resizable=0;points=[];autosize=1;" vertex="1" parent="1">
          <mxGeometry x="615" y="715" width="30" height="30" as="geometry" />
        </mxCell>
      </root>
    </mxGraphModel>
  </diagram>
</mxfile>
